<svg xmlns="http://www.w3.org/2000/svg" viewBox="0 0 148.92 46.29"><defs><style>.cls-1{fill:#fdfefe;}.cls-2{fill:#c5cbe2;}.cls-3,.cls-4{fill:#26376e;}.cls-4{font-size:26.21px;font-family:BerlinSansFB-Reg, Berlin Sans FB;}.cls-5{fill:#fff;}</style></defs><g id="Layer_2" data-name="Layer 2"><g id="Layer_1-2" data-name="Layer 1"><path class="cls-1" d="M24.89,46.28H.31C0,46.29,0,46.22,0,46Q0,23.14,0,.31C0,0,.08,0,.32,0H49.47c.27,0,.31.07.31.32V46c0,.27-.07.31-.32.31Zm7.81-8.92h0q0,3.41,0,6.8c0,.27.06.36.34.35q.73,0,1.47,0c.27,0,.32-.08.32-.33,0-1.19,0-2.37,0-3.56,0-.29.09-.41.38-.41A4,4,0,0,0,36.32,40a6.15,6.15,0,0,0,4.37-5.88c0-.31.08-.42.4-.41,1.41,0,2.81,0,4.21,0,.25,0,.34-.06.33-.32,0-.48,0-1,0-1.44,0-.3-.07-.38-.38-.38l-4.17,0c-.27,0-.35-.08-.34-.35,0-.48,0-1,0-1.43,0-1.76,0-3.51,0-5.27,0-.32.11-.39.41-.39h4.17c.29,0,.37-.08.36-.36a10.9,10.9,0,0,1,0-1.4c0-.28-.09-.34-.35-.34-1.38,0-2.76,0-4.14,0-.3,0-.4-.07-.4-.4q0-3.32,0-6.63c0-.32.07-.42.41-.42,1.38,0,2.76,0,4.13,0,.3,0,.37-.09.36-.37a13.66,13.66,0,0,1,0-1.43c0-.26-.08-.33-.33-.33H41.43c-.72,0-.72,0-.8-.69a6.18,6.18,0,0,0-5.42-5.33c-.33,0-.4-.16-.4-.47,0-1.34,0-2.68,0-4,0-.21,0-.3-.28-.3-.52,0-1,0-1.54,0-.25,0-.31.08-.3.31,0,1.36,0,2.71,0,4.07,0,.28-.07.37-.36.36h-6.7c-.29,0-.36-.09-.36-.36,0-1.34,0-2.67,0-4,0-.31-.09-.39-.39-.38a10.9,10.9,0,0,1-1.4,0c-.27,0-.34.08-.34.35,0,1.34,0,2.69,0,4,0,.29-.08.37-.36.36H16.16c-.29,0-.39-.06-.38-.37,0-1.35,0-2.71,0-4.07,0-.24-.07-.31-.31-.3-.48,0-1,0-1.43,0-.3,0-.39.07-.39.38,0,1.34,0,2.68,0,4,0,.26-.08.35-.34.39a5.79,5.79,0,0,0-1.83.5,6.18,6.18,0,0,0-3.63,5.2c0,.29-.14.32-.38.32H3.19c-.25,0-.33.07-.32.33q0,.75,0,1.5c0,.28.08.34.35.34H7.49c.3,0,.38.07.38.38q0,3.31,0,6.63c0,.29-.07.39-.38.38H3.25c-.29,0-.4.05-.38.37a11.8,11.8,0,0,1,0,1.33c0,.31.06.41.39.4h4.2c.3,0,.41.06.41.39,0,2.21,0,4.42,0,6.63,0,.31-.08.41-.4.41-1.42,0-2.85,0-4.27,0-.25,0-.34.06-.33.32,0,.48,0,1,0,1.44,0,.3.07.39.38.38H7.54c.24,0,.33.06.33.32A6.21,6.21,0,0,0,13.3,40.2c.27,0,.38.12.38.42,0,1.18,0,2.37,0,3.55,0,.28.09.35.35.34a12.52,12.52,0,0,1,1.37,0c.33,0,.41-.08.41-.41q0-6.72,0-13.43a1.43,1.43,0,0,0-.27-.88A10.62,10.62,0,0,1,17.4,15.61a10.46,10.46,0,0,1,8.07-2.47A10.23,10.23,0,0,1,31.56,16a10.64,10.64,0,0,1,1.39,14,1.35,1.35,0,0,0-.25.82C32.71,32.94,32.7,35.15,32.7,37.36ZM22.17,16a5.17,5.17,0,0,0-1.15.38,7.9,7.9,0,0,0-4.89,7.25,7.83,7.83,0,0,0,3.8,7.12.56.56,0,0,1,.3.54q0,5.88,0,11.76c0,.41,0,.82,0,1.23,0,.18.06.24.24.23h1.6c.45,0,.45,0,.45-.46V34.65a1.48,1.48,0,0,1,2.93-.37,2.9,2.9,0,0,1,0,.78q0,4.56,0,9.12c0,.25.06.34.32.33a9.84,9.84,0,0,1,1.33,0c.33,0,.41-.08.41-.41,0-4.15,0-8.3,0-12.44a.5.5,0,0,1,.31-.53A8.13,8.13,0,0,0,29.7,17.79c-.09-.07-.16-.19-.31-.15-.27,1.4-.53,2.8-.81,4.2a3.69,3.69,0,0,1-7.24-1.47C21.61,18.93,21.89,17.49,22.17,16Z"/><path class="cls-2" d="M32.7,37.36c0-2.21,0-4.42,0-6.63a1.35,1.35,0,0,1,.25-.82,10.64,10.64,0,0,0-1.39-14,10.23,10.23,0,0,0-6.09-2.81,10.69,10.69,0,0,0-11.78,9.39,10.43,10.43,0,0,0,1.83,7.26,1.43,1.43,0,0,1,.27.88q0,6.72,0,13.43c0,.33-.08.43-.41.41a12.52,12.52,0,0,0-1.37,0c-.26,0-.35-.06-.35-.34,0-1.18,0-2.37,0-3.55,0-.3-.11-.38-.38-.42A6.21,6.21,0,0,1,7.87,34c0-.26-.09-.32-.33-.32H3.23c-.31,0-.39-.08-.38-.38,0-.48,0-1,0-1.44,0-.26.08-.32.33-.32,1.42,0,2.85,0,4.27,0,.32,0,.4-.1.4-.41,0-2.21,0-4.42,0-6.63,0-.33-.11-.39-.41-.39H3.26c-.33,0-.41-.09-.39-.4a11.8,11.8,0,0,0,0-1.33c0-.32.09-.37.38-.37H7.49c.31,0,.38-.09.38-.38q0-3.32,0-6.63c0-.31-.08-.39-.38-.38H3.22c-.27,0-.36-.06-.35-.34q0-.75,0-1.5c0-.26.07-.33.32-.33H7.5c.24,0,.35,0,.38-.32A6.18,6.18,0,0,1,11.51,7a5.79,5.79,0,0,1,1.83-.5c.26,0,.34-.13.34-.39,0-1.35,0-2.69,0-4,0-.31.09-.39.39-.38.47,0,.95,0,1.43,0,.24,0,.31.06.31.3,0,1.36,0,2.72,0,4.07,0,.31.09.38.38.37h6.67c.28,0,.37-.07.36-.36,0-1.34,0-2.69,0-4,0-.27.07-.36.34-.35a10.9,10.9,0,0,0,1.4,0c.3,0,.39.07.39.38,0,1.33,0,2.66,0,4,0,.27.07.37.36.36h6.7c.29,0,.36-.08.36-.36,0-1.36,0-2.71,0-4.07,0-.23,0-.32.3-.31.51,0,1,0,1.54,0,.23,0,.28.09.28.3,0,1.35,0,2.69,0,4,0,.31.07.43.4.47a6.18,6.18,0,0,1,5.42,5.33c.08.69.08.69.8.69h3.86c.25,0,.34.07.33.33a13.66,13.66,0,0,0,0,1.43c0,.28-.06.37-.36.37-1.37,0-2.75,0-4.13,0-.34,0-.41.1-.41.42q0,3.32,0,6.63c0,.33.1.4.4.4,1.38,0,2.76,0,4.14,0,.26,0,.36.06.35.34a10.9,10.9,0,0,0,0,1.4c0,.28-.07.37-.36.36H41.09c-.3,0-.41.07-.41.39,0,1.76,0,3.51,0,5.27,0,.47,0,1,0,1.43,0,.27.07.35.34.35l4.17,0c.31,0,.39.08.38.38,0,.48,0,1,0,1.44,0,.26-.08.32-.33.32-1.4,0-2.8,0-4.21,0-.32,0-.4.1-.4.41A6.15,6.15,0,0,1,36.32,40a4,4,0,0,1-1.13.23c-.29,0-.39.12-.38.41,0,1.19,0,2.37,0,3.56,0,.25,0,.34-.32.33q-.73,0-1.47,0c-.28,0-.34-.08-.34-.35q0-3.39,0-6.8Z"/><path class="cls-3" d="M22.17,16c-.28,1.5-.56,2.94-.83,4.38a3.69,3.69,0,0,0,7.24,1.47c.28-1.4.54-2.8.81-4.2.15,0,.22.08.31.15a8.13,8.13,0,0,1-1.85,13.34.5.5,0,0,0-.31.53c0,4.14,0,8.29,0,12.44,0,.33-.08.43-.41.41a9.84,9.84,0,0,0-1.33,0c-.26,0-.32-.08-.32-.33q0-4.56,0-9.12a2.9,2.9,0,0,0,0-.78,1.48,1.48,0,0,0-2.93.37V44c0,.46,0,.46-.45.46h-1.6c-.18,0-.24,0-.24-.23,0-.41,0-.82,0-1.23q0-5.88,0-11.76a.56.56,0,0,0-.3-.54,7.83,7.83,0,0,1-3.8-7.12A7.9,7.9,0,0,1,21,16.37,5.17,5.17,0,0,1,22.17,16Z"/><text class="cls-4" transform="translate(52.92 23.89)">LAPTOP</text><rect class="cls-3" x="54.26" y="27.08" width="94.13" height="17.59" rx="4.41"/><path class="cls-5" d="M66,39.21a.41.41,0,0,1-.13.24,4.33,4.33,0,0,1-3.42,1.6,4.18,4.18,0,0,1-3.4-1.55,6.06,6.06,0,0,1,0-7.24,4.22,4.22,0,0,1,3.41-1.57,4.06,4.06,0,0,1,3.32,1.45.51.51,0,0,1,.11.25,2.38,2.38,0,0,1-.37.71c-.26.4-.41.59-.46.59s-.2-.11-.43-.34a3.52,3.52,0,0,0-.79-.64,2.65,2.65,0,0,0-1.34-.35,2.56,2.56,0,0,0-2.18,1.07,4,4,0,0,0-.69,2.41,4.1,4.1,0,0,0,.68,2.43,2.52,2.52,0,0,0,2.18,1.09A2.77,2.77,0,0,0,63.88,39a4,4,0,0,0,.87-.65,2.24,2.24,0,0,1,.4-.34,3.09,3.09,0,0,1,.47.56A3.27,3.27,0,0,1,66,39.21Z"/><path class="cls-5" d="M76.18,35.87a5.25,5.25,0,0,1-1.35,3.62A4.72,4.72,0,0,1,70,40.9a2.86,2.86,0,0,1-1-.46,5.39,5.39,0,0,1-2.4-4.57,5.26,5.26,0,0,1,1.36-3.61,4.61,4.61,0,0,1,7,0A5.24,5.24,0,0,1,76.18,35.87Zm-1.71,0a3.6,3.6,0,0,0-.86-2.41,2.88,2.88,0,0,0-4.52,0,3.87,3.87,0,0,0,0,4.84,2.8,2.8,0,0,0,2.25,1.1,2.86,2.86,0,0,0,2.28-1.1A3.7,3.7,0,0,0,74.47,35.85Z"/><path class="cls-5" d="M86.24,31.07c0,.54,0,1.36,0,2.45s-.06,1.92-.06,2.47,0,1.28,0,2.31,0,1.8,0,2.31c0,.16-.06.23-.18.23a2.21,2.21,0,0,1-.32,0l-.31,0-.35,0a2.58,2.58,0,0,1-.35,0c-.08,0-.18-.07-.3-.23q-1.53-2.05-4.64-6.14c-.32-.42-.51-.65-.56-.7s-.07.1-.07.29c0,.73,0,1.82,0,3.28s0,2.54,0,3.27c0,.16-.05.23-.14.23a2.93,2.93,0,0,1-.37,0l-.37,0-.37,0a3.07,3.07,0,0,1-.38,0c-.12,0-.18,0-.18-.14,0-.52,0-1.3.07-2.34s.08-1.83.08-2.36,0-1.6-.07-3.08c0-.39,0-1-.07-1.75v-.09c0-.07.05-.11.17-.11l.72,0a2.17,2.17,0,0,0,.37-.06l.37,0s.12.07.22.21q1.64,2.23,5,6.65l.28.32a11.69,11.69,0,0,0,.05-1.36c0-.61,0-1.53-.07-2.76s-.06-2.15-.06-2.75c0-.16,0-.24.14-.24l.38,0a3.21,3.21,0,0,0,.39,0,3.36,3.36,0,0,0,.4,0l.41,0C86.2,30.91,86.24,31,86.24,31.07Z"/><path class="cls-5" d="M94.33,32.25c0,.12,0,.18-.13.18s-1,0-2.5-.08c0,1.44-.07,2.59-.07,3.46,0,.54,0,1.36.06,2.44s.06,1.9.06,2.45c0,.09-.07.14-.2.14a3.13,3.13,0,0,1-.39,0l-.4,0-.39,0a3.13,3.13,0,0,1-.39,0,.15.15,0,0,1-.17-.17q0-.81.06-2.43c0-1.08.07-1.89.07-2.43,0-.84,0-2-.08-3.46-1.22.07-2.11.11-2.67.11-.06,0-.09,0-.09-.07a1.34,1.34,0,0,1,.07-.37c0-.2.08-.33.09-.36a4.94,4.94,0,0,1,.1-.69.12.12,0,0,1,.12-.09h.08c1.67.1,2.77.15,3.31.15s1.24,0,2.31-.1l.92-.07c.12,0,.19,0,.2.12a5.53,5.53,0,0,0,0,.69,1.8,1.8,0,0,0,0,.29C94.32,32.09,94.33,32.18,94.33,32.25Z"/><path class="cls-5" d="M102.84,40.79s0,.05-.12.05a3.6,3.6,0,0,1-.41,0l-.41,0-.44,0a4.07,4.07,0,0,1-.44,0,.28.28,0,0,1-.25-.17c-.15-.32-.58-1.32-1.29-3a.57.57,0,0,0-.52-.31h-.64c-.65,0-1,0-1.16,0s-.15.13-.15.36,0,.82,0,1.48,0,1.15,0,1.48c0,.1,0,.15-.14.15l-.43,0-.43,0-.37,0a2.93,2.93,0,0,1-.37,0c-.12,0-.18-.05-.18-.16,0-.52,0-1.31.08-2.36s.07-1.84.07-2.36c0-1.49,0-3.08-.16-4.77v-.12c0-.09.1-.14.3-.14l1.82,0,1.82,0a3.94,3.94,0,0,1,2.52.75,2.82,2.82,0,0,1,1,2.35,3.91,3.91,0,0,1-.29,1.65,3.14,3.14,0,0,1-1.1,1.21c-.09.06-.13.12-.13.18s.28.69.84,1.88A20,20,0,0,1,102.84,40.79Zm-1.94-6.42a1.83,1.83,0,0,0-.74-1.72,4.25,4.25,0,0,0-2-.32c-.76,0-1.15.07-1.17.19s0,.94,0,2v1.35l.09,0,.42,0c.45,0,.93,0,1.45,0C100.25,36,100.9,35.47,100.9,34.37Z"/><path class="cls-5" d="M113.15,35.87a5.28,5.28,0,0,1-1.34,3.62,4.74,4.74,0,0,1-4.88,1.41,2.86,2.86,0,0,1-1-.46,5.38,5.38,0,0,1-2.39-4.57,5.26,5.26,0,0,1,1.35-3.61,4.61,4.61,0,0,1,7,0A5.24,5.24,0,0,1,113.15,35.87Zm-1.71,0a3.6,3.6,0,0,0-.86-2.41,2.88,2.88,0,0,0-4.52,0,3.87,3.87,0,0,0,0,4.84,2.8,2.8,0,0,0,2.25,1.1,2.86,2.86,0,0,0,2.28-1.1A3.7,3.7,0,0,0,111.44,35.85Z"/><path class="cls-5" d="M121,39.31a4,4,0,0,1-.19,1.61q-.49,0-1.74-.06c-.7,0-1.22-.06-1.57-.06l-1.48,0c-.79,0-1.34,0-1.66,0,0-.5,0-1.34.06-2.5s0-1.82,0-2.34,0-1.37-.07-2.46-.08-1.91-.08-2.46q0-.15.18-.15a3.3,3.3,0,0,1,.39,0l.39,0,.4,0a3.36,3.36,0,0,1,.4,0c.11,0,.17,0,.17.13,0,.5,0,1.25-.06,2.26s-.06,1.76-.06,2.26v2.24c0,1,0,1.57.12,1.57,1.74,0,3.06,0,4-.12l.32-.05a1.76,1.76,0,0,1,.33,0C120.94,39.17,121,39.22,121,39.31Z"/><path class="cls-5" d="M128.48,39.31a4.22,4.22,0,0,1-.18,1.61q-.51,0-1.74-.06c-.7,0-1.23-.06-1.57-.06l-1.48,0c-.79,0-1.34,0-1.66,0,0-.5,0-1.34.05-2.5S122,36.52,122,36s0-1.37-.08-2.46-.07-1.91-.07-2.46c0-.1.06-.15.17-.15a3.13,3.13,0,0,1,.39,0l.4,0,.4,0a3.3,3.3,0,0,1,.39,0c.12,0,.17,0,.17.13,0,.5,0,1.25,0,2.26s-.06,1.76-.06,2.26V36.7c0,.5,0,.88,0,1.12,0,1,0,1.57.13,1.57,1.74,0,3.06,0,3.94-.12l.33-.05a1.81,1.81,0,0,1,.32,0C128.43,39.17,128.48,39.22,128.48,39.31Z"/><path class="cls-5" d="M136,39.42a1.36,1.36,0,0,1-.06.33c0,.18-.07.28-.08.32a6.54,6.54,0,0,1-.1.75.16.16,0,0,1-.18.12l-.27,0a21.8,21.8,0,0,0-2.7-.12l-1.55,0-1.56,0c-.16,0-.23-.06-.23-.2,0-.53,0-1.32.08-2.38s.09-1.86.09-2.39,0-1.54-.08-3c0-.38,0-.95-.08-1.7v-.1c0-.1.06-.16.19-.16l1.48,0,1.49,0,1.42,0,1.42,0q.33,0,.36.21a10.63,10.63,0,0,1,.15,1.16.14.14,0,0,1-.16.16c-.4,0-1,0-1.82-.07s-1.43-.06-1.84-.06a1.15,1.15,0,0,0-.73.15,1.26,1.26,0,0,0-.15.77v1.06a2.47,2.47,0,0,0,0,.5c0,.15.16.22.37.22H132c.92,0,1.75,0,2.49,0,.29,0,.63,0,1-.07.1,0,.15,0,.15.13a6,6,0,0,1-.06.69c0,.32-.05.55-.05.71s-.07.12-.21.12-.27,0-.63-.05-.86,0-1.78,0-1.28,0-1.48,0a.32.32,0,0,0-.33.3,3.49,3.49,0,0,1,0,.54v1c0,.49.07.8.22.92a1.64,1.64,0,0,0,.89.15H133c.33,0,1.26-.06,2.78-.17h.11C136,39.23,136,39.29,136,39.42Z"/><path class="cls-5" d="M144.76,40.79s0,.05-.12.05a3.6,3.6,0,0,1-.41,0l-.41,0-.44,0a4.07,4.07,0,0,1-.44,0,.28.28,0,0,1-.25-.17c-.15-.32-.58-1.32-1.29-3a.57.57,0,0,0-.52-.31h-.64c-.65,0-1,0-1.16,0s-.15.13-.15.36,0,.82,0,1.48,0,1.15,0,1.48c0,.1,0,.15-.14.15l-.43,0-.43,0-.37,0a2.93,2.93,0,0,1-.37,0c-.12,0-.18-.05-.18-.16,0-.52,0-1.31.08-2.36s.07-1.84.07-2.36c0-1.49-.05-3.08-.16-4.77v-.12c0-.09.1-.14.3-.14l1.82,0,1.82,0a3.94,3.94,0,0,1,2.52.75A2.82,2.82,0,0,1,144.59,34a3.91,3.91,0,0,1-.29,1.65,3.23,3.23,0,0,1-1.1,1.21c-.09.06-.14.12-.14.18s.29.69.85,1.88A20,20,0,0,1,144.76,40.79Zm-1.94-6.42a1.83,1.83,0,0,0-.74-1.72,4.25,4.25,0,0,0-2-.32c-.76,0-1.15.07-1.17.19s0,.94,0,2v1.35l.09,0,.42,0c.45,0,.93,0,1.45,0C142.17,36,142.82,35.47,142.82,34.37Z"/></g></g></svg>