<svg xmlns="http://www.w3.org/2000/svg" viewBox="0 0 177.34 164.9"><defs><style>.cls-1{fill:#fdfefe;}.cls-2{fill:#c5cbe2;}.cls-3{fill:#26376e;}</style></defs><g id="Layer_2" data-name="Layer 2"><g id="Layer_1-2" data-name="Layer 1"><path class="cls-1" d="M88.65,164.88q-43.77,0-87.55,0c-1,0-1.09-.26-1.09-1.14Q0,82.43,0,1.1C0,.14.27,0,1.14,0Q88.7,0,176.24,0c1,0,1.1.27,1.1,1.14q0,81.33,0,162.66c0,1-.26,1.1-1.14,1.1Q132.43,164.86,88.65,164.88Zm27.84-31.78h0c0,8.08,0,16.15,0,24.23,0,.94.22,1.28,1.21,1.23,1.74-.08,3.49-.08,5.23,0,.95,0,1.15-.3,1.14-1.18,0-4.22,0-8.44-.05-12.66,0-1.07.35-1.47,1.35-1.5a14.26,14.26,0,0,0,4-.79,21.93,21.93,0,0,0,15.56-21c0-1.08.31-1.46,1.45-1.45,5,.06,10,0,15,0,.88,0,1.23-.2,1.18-1.15-.09-1.7-.12-3.41,0-5.11.05-1.06-.26-1.37-1.35-1.35-4.95.07-9.9,0-14.85.09-1,0-1.24-.3-1.22-1.24,0-1.7-.08-3.41-.08-5.11,0-6.25,0-12.5-.08-18.75,0-1.16.37-1.41,1.45-1.4,5,0,9.9,0,14.85,0,1,0,1.32-.3,1.27-1.3-.08-1.66-.08-3.33,0-5,.05-1-.32-1.21-1.24-1.2-4.91,0-9.82,0-14.73,0-1.09,0-1.45-.24-1.44-1.4q.07-11.8,0-23.61c0-1.15.26-1.52,1.46-1.5,4.91.07,9.82,0,14.73,0,1,0,1.32-.31,1.27-1.31-.09-1.7-.1-3.41,0-5.11,0-.93-.28-1.16-1.18-1.15-4.58,0-9.17,0-13.75,0-2.54,0-2.56,0-2.85-2.47a22.06,22.06,0,0,0-19.3-19c-1.19-.14-1.44-.55-1.43-1.65,0-4.79,0-9.57,0-14.36,0-.77-.19-1.08-1-1.06-1.83,0-3.66,0-5.48,0-.88,0-1.08.28-1.08,1.11,0,4.83,0,9.66,0,14.49,0,1-.24,1.31-1.27,1.3q-11.94-.06-23.87,0c-1,0-1.28-.33-1.27-1.31.05-4.75,0-9.5.05-14.24,0-1.11-.32-1.39-1.37-1.33-1.66.08-3.33.08-5,0-1-.05-1.23.27-1.22,1.23.05,4.78,0,9.57.05,14.36,0,1-.29,1.3-1.3,1.29q-11.86-.06-23.74,0c-1,0-1.39-.22-1.38-1.33.07-4.83,0-9.66,0-14.48,0-.86-.26-1.12-1.1-1.09-1.7.06-3.41.09-5.11,0-1,0-1.39.22-1.37,1.33.07,4.79,0,9.58,0,14.36,0,.92-.27,1.26-1.2,1.39A21.1,21.1,0,0,0,41,25c-7.72,3.77-12,10-12.94,18.5-.11,1-.48,1.16-1.34,1.16-5.11,0-10.23,0-15.34,0-.91,0-1.2.25-1.16,1.17.07,1.78.08,3.57,0,5.35,0,1,.3,1.22,1.24,1.21,5.07,0,10.14,0,15.22,0,1.06,0,1.36.27,1.35,1.35Q28,65.44,28,77.25c0,1-.25,1.39-1.34,1.38-5-.06-10.07,0-15.1,0-1,0-1.45.2-1.38,1.32a39.62,39.62,0,0,1,0,4.75c-.06,1.08.22,1.45,1.38,1.43,5-.07,10,0,15,0,1.06,0,1.46.21,1.46,1.39C28,95.3,28,103.17,28,111c0,1.11-.27,1.46-1.41,1.44-5.07-.06-10.15,0-15.22,0-.88,0-1.22.2-1.19,1.14.06,1.7.06,3.41,0,5.11-.07,1.07.24,1.39,1.33,1.37,5.12-.06,10.23,0,15.34,0,.89,0,1.2.21,1.19,1.14a22.16,22.16,0,0,0,19.33,22.05c1,.13,1.38.41,1.37,1.48-.07,4.22,0,8.44,0,12.66,0,1,.29,1.25,1.23,1.21a44,44,0,0,1,4.87,0c1.18.07,1.48-.3,1.47-1.47q-.06-23.92,0-47.85a5.27,5.27,0,0,0-1-3.14A37.85,37.85,0,0,1,62,55.59a37.15,37.15,0,0,1,28.72-8.77,36,36,0,0,1,21.69,10c8.82,8.47,12.85,18.88,11.87,31.14a37.31,37.31,0,0,1-6.89,18.58,4.86,4.86,0,0,0-.92,2.93C116.51,117.36,116.49,125.23,116.49,133.1ZM79,57a21,21,0,0,0-4.12,1.36C64,63.53,57.9,72,57.47,84.16c-.39,11,4.5,19.32,13.53,25.35a2,2,0,0,1,1.07,1.93q0,20.94,0,41.88c0,1.46,0,2.92,0,4.38,0,.64.22.85.85.83,1.9,0,3.81,0,5.72,0,1.59,0,1.59,0,1.6-1.62,0-11.16,0-22.32,0-33.48a5.27,5.27,0,0,1,10.42-1.32,10.37,10.37,0,0,1,.19,2.78q0,16.26,0,32.51c0,.89.2,1.2,1.14,1.15a39.45,39.45,0,0,1,4.74,0c1.19.08,1.47-.29,1.47-1.47,0-14.77,0-29.54-.05-44.31a1.73,1.73,0,0,1,1.1-1.86,28.68,28.68,0,0,0,16-29.22,28.35,28.35,0,0,0-9.4-18.3c-.31-.28-.58-.7-1.09-.56-1,5-1.92,10-2.91,15A13.16,13.16,0,0,1,76,72.58C77,67.44,78,62.31,79,57Z"/><path class="cls-2" d="M116.49,133.1c0-7.87,0-15.74,0-23.61a4.86,4.86,0,0,1,.92-2.93A37.31,37.31,0,0,0,124.28,88c1-12.26-3-22.67-11.87-31.14a36,36,0,0,0-21.69-10A38,38,0,0,0,48.78,80.28a37,37,0,0,0,6.51,25.83,5.27,5.27,0,0,1,1,3.14q0,23.93,0,47.85c0,1.17-.29,1.54-1.47,1.47a44,44,0,0,0-4.87,0c-.94,0-1.25-.22-1.23-1.21,0-4.22,0-8.44,0-12.66,0-1.07-.38-1.35-1.37-1.48A22.16,22.16,0,0,1,28,121.16c0-.93-.3-1.15-1.19-1.14-5.11,0-10.22,0-15.34,0-1.09,0-1.4-.3-1.33-1.37.1-1.7.1-3.41,0-5.11,0-.94.31-1.15,1.19-1.14,5.07,0,10.15,0,15.22,0,1.14,0,1.42-.33,1.41-1.44,0-7.87-.05-15.74,0-23.62,0-1.18-.4-1.4-1.46-1.39-5,0-10,0-15,0-1.16,0-1.44-.35-1.38-1.43a39.62,39.62,0,0,0,0-4.75c-.07-1.12.35-1.33,1.38-1.32,5,0,10.06,0,15.1,0,1.09,0,1.35-.33,1.34-1.38Q28,65.44,28,53.63c0-1.08-.29-1.36-1.35-1.35-5.08.06-10.15,0-15.22,0-.94,0-1.28-.22-1.24-1.21.08-1.78.07-3.57,0-5.35,0-.92.25-1.17,1.16-1.17,5.11,0,10.23,0,15.34,0,.86,0,1.23-.13,1.34-1.16C29,35,33.28,28.76,41,25a21.1,21.1,0,0,1,6.52-1.81c.93-.13,1.2-.47,1.2-1.39,0-4.78,0-9.57,0-14.36,0-1.11.32-1.38,1.37-1.33,1.7.08,3.41.05,5.11,0,.84,0,1.1.23,1.1,1.09,0,4.82,0,9.65,0,14.48,0,1.11.34,1.34,1.38,1.33q11.86-.06,23.74,0c1,0,1.31-.27,1.3-1.29-.05-4.79,0-9.58-.05-14.36,0-1,.24-1.28,1.22-1.23,1.66.08,3.33.08,5,0,1-.06,1.39.22,1.37,1.33-.06,4.74,0,9.49-.05,14.24,0,1,.23,1.32,1.27,1.31q11.94-.06,23.87,0c1,0,1.28-.31,1.27-1.3,0-4.83,0-9.66,0-14.49,0-.83.2-1.14,1.08-1.11,1.82.07,3.65.07,5.48,0,.82,0,1,.29,1,1.06,0,4.79,0,9.57,0,14.36,0,1.1.24,1.51,1.43,1.65a22.06,22.06,0,0,1,19.3,19c.29,2.47.31,2.47,2.85,2.47,4.58,0,9.17,0,13.75,0,.9,0,1.21.22,1.18,1.15-.06,1.7,0,3.41,0,5.11,0,1-.23,1.32-1.27,1.31-4.91,0-9.82,0-14.73,0-1.2,0-1.47.35-1.46,1.5q.07,11.81,0,23.61c0,1.16.35,1.42,1.44,1.4,4.91-.06,9.82,0,14.73,0,.92,0,1.29.2,1.24,1.2-.08,1.66-.08,3.33,0,5,.05,1-.23,1.31-1.27,1.3-4.95-.06-9.9,0-14.85,0-1.08,0-1.46.24-1.45,1.4.07,6.25,0,12.5.08,18.75,0,1.7.12,3.41.08,5.11,0,.94.24,1.25,1.22,1.24,4.95-.06,9.9,0,14.85-.09,1.09,0,1.4.29,1.35,1.35-.08,1.7,0,3.41,0,5.11,0,.95-.3,1.16-1.18,1.15-5,0-10,0-15,0-1.14,0-1.43.37-1.45,1.45a21.93,21.93,0,0,1-15.56,21,14.26,14.26,0,0,1-4,.79c-1,0-1.36.43-1.35,1.5.07,4.22,0,8.44.05,12.66,0,.88-.19,1.22-1.14,1.18-1.74-.08-3.49-.08-5.23,0-1,.05-1.22-.29-1.21-1.23,0-8.08,0-16.15,0-24.23Z"/><path class="cls-3" d="M79,57c-1,5.36-2,10.49-3,15.63a13.16,13.16,0,0,0,25.79,5.2c1-5,1.93-9.94,2.91-15,.51-.14.78.28,1.09.56a28.35,28.35,0,0,1,9.4,18.3,28.68,28.68,0,0,1-16,29.22,1.73,1.73,0,0,0-1.1,1.86c0,14.77,0,29.54.05,44.31,0,1.18-.28,1.55-1.47,1.47a39.45,39.45,0,0,0-4.74,0c-.94.05-1.14-.26-1.14-1.15q0-16.26,0-32.51a10.37,10.37,0,0,0-.19-2.78,5.27,5.27,0,0,0-10.42,1.32c0,11.16,0,22.32,0,33.48,0,1.62,0,1.62-1.6,1.62-1.91,0-3.82,0-5.72,0-.63,0-.86-.19-.85-.83,0-1.46,0-2.92,0-4.38q0-20.94,0-41.88A2,2,0,0,0,71,109.51c-9-6-13.92-14.36-13.53-25.35C57.9,72,64,63.53,74.87,58.31A21,21,0,0,1,79,57Z"/></g></g></svg>