<svg xmlns="http://www.w3.org/2000/svg" viewBox="0 0 172.17 73.54"><defs><style>.cls-1{fill:#fdfefe;}.cls-2{fill:#c5cbe2;}.cls-3{fill:#26376e;}.cls-4{fill:#fff;}</style></defs><g id="Layer_2" data-name="Layer 2"><g id="Layer_1-2" data-name="Layer 1"><path class="cls-1" d="M123.8,37.46H103.91c-.22,0-.25-.06-.25-.26q0-18.48,0-36.95c0-.22.06-.25.26-.25H143.7c.21,0,.25.06.25.26q0,18.48,0,37c0,.22-.06.25-.26.25Zm6.32-7.22h0c0,1.83,0,3.67,0,5.5,0,.21,0,.29.28.28a11.81,11.81,0,0,1,1.19,0c.21,0,.26-.07.26-.27,0-1,0-1.92,0-2.87,0-.25.07-.34.3-.34a3.57,3.57,0,0,0,.92-.18,5,5,0,0,0,3.53-4.77c0-.24.07-.33.33-.33,1.14,0,2.27,0,3.41,0,.2,0,.28,0,.26-.26,0-.38,0-.77,0-1.16s-.06-.31-.31-.31c-1.12,0-2.25,0-3.37,0-.23,0-.29-.06-.28-.28,0-.38,0-.77,0-1.16,0-1.42,0-2.84,0-4.26,0-.26.09-.32.33-.32h3.38c.23,0,.29-.06.28-.29,0-.38,0-.76,0-1.13s-.07-.28-.28-.28c-1.11,0-2.23,0-3.34,0-.25,0-.33-.06-.33-.32q0-2.69,0-5.37c0-.26.06-.34.33-.34,1.12,0,2.23,0,3.35,0,.23,0,.3-.07.28-.29a11.22,11.22,0,0,1,0-1.16c0-.22-.07-.27-.27-.27h-3.13c-.57,0-.58,0-.64-.56a5,5,0,0,0-4.39-4.31c-.27,0-.33-.13-.32-.38,0-1.09,0-2.17,0-3.26,0-.18-.05-.25-.23-.24-.42,0-.83,0-1.25,0-.2,0-.24.07-.24.26,0,1.09,0,2.19,0,3.29,0,.22-.06.29-.29.29h-5.42c-.24,0-.29-.07-.29-.3,0-1.07,0-2.15,0-3.23,0-.25-.07-.32-.31-.3a10.84,10.84,0,0,1-1.14,0c-.22,0-.28.06-.27.28,0,1.08,0,2.17,0,3.26,0,.23-.07.29-.3.29h-5.39c-.24,0-.32,0-.31-.3,0-1.1,0-2.19,0-3.29,0-.2-.06-.25-.25-.25a11.22,11.22,0,0,1-1.16,0c-.24,0-.32.06-.31.31,0,1.09,0,2.17,0,3.26,0,.21-.06.29-.28.32a4.8,4.8,0,0,0-1.48.41A5,5,0,0,0,110,9.88c0,.23-.11.26-.3.26h-3.49c-.2,0-.27.06-.26.27,0,.4,0,.81,0,1.21,0,.23.07.28.28.28h3.46c.24,0,.31.06.31.3q0,2.69,0,5.37c0,.24-.06.32-.31.31h-3.43c-.23,0-.33,0-.31.3a9.73,9.73,0,0,1,0,1.08c0,.25,0,.33.31.33,1.14,0,2.27,0,3.41,0,.24,0,.33.05.33.32,0,1.79,0,3.58,0,5.37,0,.25-.07.33-.32.32h-3.46c-.2,0-.28.05-.27.26,0,.39,0,.78,0,1.16s0,.32.3.31h3.49c.2,0,.27,0,.27.26a4.83,4.83,0,0,0,1,3.06,4.9,4.9,0,0,0,3.37,2c.22,0,.31.1.31.34,0,1,0,1.92,0,2.88,0,.22.06.28.28.27a10.09,10.09,0,0,1,1.1,0c.27,0,.34-.07.34-.33q0-5.44,0-10.87a1.25,1.25,0,0,0-.22-.72,8.59,8.59,0,0,1,1.52-11.47,8.44,8.44,0,0,1,6.53-2,8.15,8.15,0,0,1,4.93,2.27,8.64,8.64,0,0,1,1.13,11.3,1,1,0,0,0-.21.66C130.13,26.66,130.12,28.45,130.12,30.24Zm-8.52-17.3a4.06,4.06,0,0,0-.93.31,6.39,6.39,0,0,0-4,5.87,6.35,6.35,0,0,0,3.08,5.76.47.47,0,0,1,.24.44c0,3.17,0,6.34,0,9.51,0,.33,0,.66,0,1,0,.14,0,.19.19.18h1.3c.37,0,.37,0,.37-.37,0-2.53,0-5.07,0-7.6a1.2,1.2,0,0,1,2.37-.3,2.67,2.67,0,0,1,0,.63v7.38c0,.21,0,.28.25.27a7.79,7.79,0,0,1,1.08,0c.27,0,.34-.07.34-.34,0-3.35,0-6.71,0-10.06a.39.39,0,0,1,.25-.42,6.52,6.52,0,0,0,3.64-6.64,6.45,6.45,0,0,0-2.14-4.16c-.07-.06-.13-.16-.25-.13-.22,1.14-.43,2.27-.66,3.4a3,3,0,0,1-5.85-1.18Z"/><path class="cls-2" d="M130.12,30.24c0-1.79,0-3.58,0-5.37a1,1,0,0,1,.21-.66,8.64,8.64,0,0,0-1.13-11.3,8.15,8.15,0,0,0-4.93-2.27,8.63,8.63,0,0,0-9.53,7.6,8.43,8.43,0,0,0,1.48,5.86,1.25,1.25,0,0,1,.22.72q0,5.43,0,10.87c0,.26-.07.35-.34.33a10.09,10.09,0,0,0-1.1,0c-.22,0-.29-.05-.28-.27,0-1,0-1.92,0-2.88,0-.24-.09-.31-.31-.34a4.9,4.9,0,0,1-3.37-2,4.83,4.83,0,0,1-1-3.06c0-.21-.07-.26-.27-.26h-3.49c-.25,0-.32-.06-.3-.31s0-.77,0-1.16c0-.21.07-.26.27-.26h3.46c.25,0,.32-.07.32-.32,0-1.79,0-3.58,0-5.37,0-.27-.09-.32-.33-.32-1.14,0-2.27,0-3.41,0-.26,0-.32-.08-.31-.33a9.73,9.73,0,0,0,0-1.08c0-.25.08-.3.31-.3h3.43c.25,0,.31-.07.31-.31q0-2.69,0-5.37c0-.24-.07-.31-.31-.3h-3.46c-.21,0-.29-.05-.28-.28,0-.4,0-.81,0-1.21,0-.21.06-.27.26-.27h3.49c.19,0,.28,0,.3-.26A5,5,0,0,1,113,5.68a4.8,4.8,0,0,1,1.48-.41c.22,0,.28-.11.28-.32,0-1.09,0-2.17,0-3.26,0-.25.07-.32.31-.31a11.22,11.22,0,0,0,1.16,0c.19,0,.25.05.25.25,0,1.1,0,2.19,0,3.29,0,.25.07.3.31.3h5.39c.23,0,.3-.06.3-.29,0-1.09,0-2.18,0-3.26,0-.22,0-.29.27-.28a10.84,10.84,0,0,0,1.14,0c.24,0,.31.05.31.3,0,1.08,0,2.16,0,3.23,0,.23.05.3.29.3h5.42c.23,0,.29-.07.29-.29,0-1.1,0-2.2,0-3.29,0-.19,0-.26.24-.26.42,0,.83,0,1.25,0,.18,0,.23.06.23.24,0,1.09,0,2.17,0,3.26,0,.25,0,.34.32.38a5,5,0,0,1,4.39,4.31c.06.56.07.56.64.56h3.13c.2,0,.27,0,.27.27a11.22,11.22,0,0,0,0,1.16c0,.22-.05.3-.28.29-1.12,0-2.23,0-3.35,0-.27,0-.33.08-.33.34q0,2.69,0,5.37c0,.26.08.32.33.32,1.11,0,2.23,0,3.34,0,.21,0,.3,0,.28.28s0,.75,0,1.13c0,.23,0,.3-.28.29h-3.38c-.24,0-.33.06-.33.32,0,1.42,0,2.84,0,4.26,0,.39,0,.78,0,1.16,0,.22,0,.29.28.28,1.12,0,2.25,0,3.37,0,.25,0,.32.07.31.31s0,.78,0,1.16c0,.22-.06.26-.26.26-1.14,0-2.27,0-3.41,0-.26,0-.32.09-.33.33a5,5,0,0,1-3.53,4.77,3.57,3.57,0,0,1-.92.18c-.23,0-.31.09-.3.34,0,.95,0,1.91,0,2.87,0,.2-.05.28-.26.27a11.81,11.81,0,0,0-1.19,0c-.23,0-.28-.07-.28-.28,0-1.83,0-3.67,0-5.5Z"/><path class="cls-3" d="M121.6,12.94l-.67,3.55a3,3,0,0,0,5.85,1.18c.23-1.13.44-2.26.66-3.4.12,0,.18.07.25.13a6.45,6.45,0,0,1,2.14,4.16,6.52,6.52,0,0,1-3.64,6.64.39.39,0,0,0-.25.42c0,3.35,0,6.71,0,10.06,0,.27-.07.36-.34.34a7.79,7.79,0,0,0-1.08,0c-.21,0-.25-.06-.25-.27V28.37a2.67,2.67,0,0,0,0-.63,1.2,1.2,0,0,0-2.37.3c0,2.53,0,5.07,0,7.6,0,.37,0,.37-.37.37h-1.3c-.14,0-.19,0-.19-.18,0-.34,0-.67,0-1,0-3.17,0-6.34,0-9.51a.47.47,0,0,0-.24-.44,6.35,6.35,0,0,1-3.08-5.76,6.39,6.39,0,0,1,4-5.87A4.06,4.06,0,0,1,121.6,12.94Z"/><path class="cls-3" d="M20.75,30.33a20,20,0,0,1-.33,4.37.73.73,0,0,1-.77.64c-1.09,0-2.71-.06-4.88-.18S11,35,9.88,35s-2.56,0-4.6.06-3.57.07-4.6.07a.49.49,0,0,1-.55-.55q0-2.4.17-7.24t.16-7.26c0-1.7-.07-4.25-.23-7.65S0,6.46,0,4.76c0-.33.18-.49.55-.49s.67,0,1.21.07,1,.06,1.23.06.68,0,1.23-.06,1-.07,1.24-.07.53.14.53.42q0,2.33-.18,7t-.18,7v3.48c0,1.55,0,2.71,0,3.47,0,3.26.13,4.89.4,4.89q8.12,0,12.25-.4c.14,0,.47-.06,1-.15a5.31,5.31,0,0,1,1-.13C20.6,29.91,20.75,30.05,20.75,30.33Z"/><path class="cls-3" d="M50.52,34.84c0,.17-.17.26-.52.26s-.69,0-1.22-.07-1-.06-1.23-.06-.69,0-1.25.06-1,.07-1.26.07-.93-1.11-1.57-3.33-1.29-3.35-1.95-3.38-2-.05-4.24-.05H33.8c-2.42,0-3.8,0-4.14.05q-.8.06-1.68,3.39C27.39,34,26.93,35.1,26.6,35.1h-5c-.29,0-.44-.1-.44-.31a4.23,4.23,0,0,1,.31-1l5.39-14.74q.69-1.78,4.14-10.28c.41-.94,1-2.35,1.67-4.25.18-.55.37-.83.57-.83a11,11,0,0,1,1.24.11,10.64,10.64,0,0,0,1.23.11A9.08,9.08,0,0,0,37,3.8a8.9,8.9,0,0,1,1.17-.12c.14,0,.32.27.56.81q.53,1.23,5.21,13.27Q50.53,34.68,50.52,34.84ZM40.27,22.69a36.82,36.82,0,0,0-2-5.72c-1.28-3.29-2.18-5.44-2.71-6.47Q31,22.11,31,22.67c0,.5.56.79,1.67.88.06,0,.78,0,2.16,0h2.26C39.22,23.57,40.27,23.28,40.27,22.69Z"/><path class="cls-3" d="M77.94,15.63a11.91,11.91,0,0,1-2.79,8.27,10.21,10.21,0,0,1-8,3.19c-.84,0-2.1,0-3.8-.1s-3-.1-3.81-.1c-.47,0-.71.3-.71.9,0,.78,0,1.95.15,3.5s.14,2.73.14,3.5c0,.25-.14.38-.42.38s-.77,0-1.4-.1a13.4,13.4,0,0,0-1.39-.1q-.41,0-1.17.06c-.51,0-.9.07-1.14.07s-.55-.23-.55-.68c0-1.6.06-4,.2-7.24s.21-5.65.21-7.26q0-6.87-.5-14.75l0-.33c0-.32.18-.48.58-.48l3.57,0c1.6,0,2.79,0,3.6,0s1.72,0,3.1-.08,2.42-.09,3.11-.09a10.5,10.5,0,0,1,8,3.3A11.3,11.3,0,0,1,77.94,15.63ZM72.4,16a7.66,7.66,0,0,0-1.78-5.29,6.54,6.54,0,0,0-5.11-2.06c-.67,0-1.88.05-3.61.17a12,12,0,0,0-3.06.35q-.15.27-.15,7.57c0,.62,0,1.54.05,2.78s.06,2.15.06,2.77c0,.13.16.23.48.31A51.68,51.68,0,0,0,66,22.8a6.12,6.12,0,0,0,4.8-1.91A7.23,7.23,0,0,0,72.4,16Z"/><path class="cls-3" d="M101.6,8.39c0,.38-.13.57-.4.57s-3-.09-7.79-.27q-.19,6.72-.2,10.77c0,1.68.07,4.21.19,7.59s.19,5.9.19,7.59c0,.31-.21.46-.64.46-.26,0-.67,0-1.21-.07S90.79,35,90.51,35s-.67,0-1.21.06-1,.07-1.21.07a.48.48,0,0,1-.55-.55q0-2.5.21-7.54T88,19.46c0-2.62-.09-6.2-.25-10.77q-5.67.36-8.31.36c-.18,0-.27-.08-.27-.22a5,5,0,0,1,.2-1.15c.16-.64.26-1,.29-1.14a16.18,16.18,0,0,1,.3-2.14.39.39,0,0,1,.38-.28l.26,0c5.2.31,8.62.46,10.28.46Q93,4.6,98,4.27a24.62,24.62,0,0,0,2.84-.22c.38,0,.6.13.64.4a15.12,15.12,0,0,0,0,2.13c0,.19,0,.49.06.89A8,8,0,0,1,101.6,8.39Z"/><path class="cls-3" d="M172.17,15.63a11.91,11.91,0,0,1-2.79,8.27,10.21,10.21,0,0,1-8,3.19c-.83,0-2.1,0-3.79-.1s-3-.1-3.82-.1c-.47,0-.71.3-.71.9,0,.78.05,1.95.15,3.5s.14,2.73.14,3.5c0,.25-.14.38-.42.38s-.77,0-1.4-.1a13.4,13.4,0,0,0-1.39-.1q-.41,0-1.17.06c-.51,0-.89.07-1.14.07s-.55-.23-.55-.68c0-1.6.06-4,.2-7.24s.21-5.65.21-7.26q0-6.87-.5-14.75l0-.33q0-.48.57-.48l3.57,0c1.6,0,2.79,0,3.6,0s1.73,0,3.1-.08,2.42-.09,3.11-.09a10.54,10.54,0,0,1,8,3.3A11.34,11.34,0,0,1,172.17,15.63Zm-5.54.33a7.66,7.66,0,0,0-1.78-5.29,6.54,6.54,0,0,0-5.11-2.06c-.67,0-1.88.05-3.61.17a12,12,0,0,0-3.06.35q-.15.27-.15,7.57c0,.62,0,1.54.05,2.78s.06,2.15.06,2.77c0,.13.16.23.48.31a51.77,51.77,0,0,0,6.72.24A6.11,6.11,0,0,0,165,20.89,7.23,7.23,0,0,0,166.63,16Z"/><rect class="cls-3" y="41.37" width="172.17" height="32.17" rx="6.52"/><path class="cls-4" d="M21.55,63.56a.77.77,0,0,1-.25.44,7.94,7.94,0,0,1-6.25,2.93,7.66,7.66,0,0,1-6.22-2.84,10,10,0,0,1-2.17-6.6,10.07,10.07,0,0,1,2.21-6.63A7.64,7.64,0,0,1,15.1,48a7.36,7.36,0,0,1,6.07,2.65.81.81,0,0,1,.21.45,4.53,4.53,0,0,1-.69,1.3c-.45.73-.73,1.09-.83,1.09s-.37-.22-.79-.64a6.62,6.62,0,0,0-1.43-1.16A4.83,4.83,0,0,0,15.18,51a4.64,4.64,0,0,0-4,2,7.25,7.25,0,0,0-1.27,4.4,7.51,7.51,0,0,0,1.26,4.44,4.59,4.59,0,0,0,4,2,5,5,0,0,0,2.45-.64A7.2,7.2,0,0,0,19.18,62a4.19,4.19,0,0,1,.74-.63,6.09,6.09,0,0,1,.85,1A6.28,6.28,0,0,1,21.55,63.56Z"/><path class="cls-4" d="M40.09,57.46a9.63,9.63,0,0,1-2.46,6.62,8.51,8.51,0,0,1-12.74,0,10.11,10.11,0,0,1,0-13.24,8.43,8.43,0,0,1,12.71,0A9.62,9.62,0,0,1,40.09,57.46Zm-3.12,0A6.65,6.65,0,0,0,35.39,53a5.19,5.19,0,0,0-4.16-2,5.07,5.07,0,0,0-4.11,2,7,7,0,0,0,0,8.84,5.07,5.07,0,0,0,4.11,2,5.15,5.15,0,0,0,4.17-2A6.75,6.75,0,0,0,37,57.42Z"/><path class="cls-4" d="M58.5,48.67c0,1,0,2.49-.11,4.49s-.1,3.51-.1,4.51,0,2.35,0,4.23,0,3.28,0,4.23c0,.28-.11.42-.32.42a5.22,5.22,0,0,1-.58,0l-.59,0-.63,0c-.29,0-.5,0-.64,0s-.34-.14-.55-.42q-2.81-3.78-8.48-11.24c-.59-.76-.93-1.19-1-1.27s-.13.18-.13.53c0,1.33,0,3.32.06,6s.07,4.66.07,6c0,.28-.09.42-.26.42s-.38,0-.68,0l-.67,0-.69,0c-.31,0-.54,0-.7,0s-.32-.08-.32-.26c0-1,0-2.38.14-4.29s.13-3.35.13-4.3,0-2.93-.11-5.65c0-.71-.06-1.77-.13-3.18l0-.17c0-.13.1-.2.31-.21.57,0,1,0,1.32-.05.13,0,.35,0,.69-.1a3.37,3.37,0,0,1,.67-.08c.08,0,.22.12.41.37q3,4.09,9.11,12.17c.18.23.35.42.51.59a20.42,20.42,0,0,0,.09-2.49c0-1.12,0-2.8-.13-5s-.12-3.92-.12-5c0-.28.09-.42.26-.42s.39,0,.7,0l.71,0,.74,0c.33,0,.57,0,.74,0S58.5,48.48,58.5,48.67Z"/><path class="cls-4" d="M73.28,50.83c0,.23-.07.34-.23.34L68.47,51q-.12,3.94-.12,6.33c0,1,0,2.48.11,4.46s.11,3.48.11,4.47c0,.18-.12.27-.37.27s-.4,0-.72,0l-.72,0-.71,0c-.32,0-.56,0-.72,0a.29.29,0,0,1-.32-.32c0-1,0-2.46.12-4.44s.13-3.45.13-4.44q0-2.31-.15-6.33c-2.22.13-3.85.2-4.89.2-.1,0-.16,0-.16-.13a2.79,2.79,0,0,1,.12-.67c.1-.38.15-.6.17-.67a11.35,11.35,0,0,1,.18-1.26.23.23,0,0,1,.22-.17l.16,0c3.05.18,5.07.27,6,.27s2.28-.07,4.24-.2a12,12,0,0,0,1.67-.13c.22,0,.35.08.37.24a8.85,8.85,0,0,0,0,1.25c0,.12,0,.29,0,.53A4.25,4.25,0,0,1,73.28,50.83Z"/><path class="cls-4" d="M88.84,66.45c0,.07-.06.1-.2.1s-.42,0-.75,0l-.75,0-.81,0c-.36,0-.63,0-.81,0a.51.51,0,0,1-.46-.32c-.27-.59-1.06-2.41-2.35-5.45a1.09,1.09,0,0,0-.95-.57H80.58a21.2,21.2,0,0,0-2.12,0q-.27,0-.27.66c0,.6,0,1.51.08,2.71s.09,2.1.09,2.7a.24.24,0,0,1-.26.27,7.4,7.4,0,0,1-.78-.06,7.69,7.69,0,0,0-.8-.06l-.67,0c-.31,0-.53,0-.68,0s-.32-.1-.32-.3c0-1,0-2.39.14-4.31s.13-3.36.13-4.32q0-4.09-.3-8.73v-.2c0-.18.17-.26.54-.26.75,0,1.86,0,3.34-.06s2.59-.06,3.32-.06a7.27,7.27,0,0,1,4.61,1.37A5.16,5.16,0,0,1,88.53,54,7.34,7.34,0,0,1,88,57a6.05,6.05,0,0,1-2,2.21c-.17.11-.25.22-.25.32S86.27,60.8,87.3,63A32.54,32.54,0,0,1,88.84,66.45ZM85.3,54.71c0-1.57-.45-2.61-1.35-3.14A7.71,7.71,0,0,0,80.36,51c-1.39,0-2.11.11-2.13.34-.06.46-.09,1.71-.09,3.74v2.47a.34.34,0,0,0,.17.05l.76.07c.82,0,1.7.06,2.65.06Q85.31,57.72,85.3,54.71Z"/><path class="cls-4" d="M107.71,57.46a9.63,9.63,0,0,1-2.46,6.62,8.51,8.51,0,0,1-12.74,0,10.11,10.11,0,0,1,0-13.24,8.43,8.43,0,0,1,12.71,0A9.62,9.62,0,0,1,107.71,57.46Zm-3.12,0A6.65,6.65,0,0,0,103,53a5.19,5.19,0,0,0-4.16-2,5.07,5.07,0,0,0-4.11,2,7,7,0,0,0,0,8.84,5.07,5.07,0,0,0,4.11,2,5.15,5.15,0,0,0,4.17-2A6.75,6.75,0,0,0,104.59,57.42Z"/><path class="cls-4" d="M122,63.74a11.87,11.87,0,0,1-.19,2.58.44.44,0,0,1-.46.37c-.64,0-1.59,0-2.87-.11s-2.24-.11-2.88-.11l-2.7,0c-1.2,0-2.1,0-2.71,0a.29.29,0,0,1-.32-.32c0-.94,0-2.36.1-4.26s.09-3.32.09-4.27,0-2.5-.13-4.5-.14-3.5-.14-4.5c0-.19.11-.29.33-.29l.71,0c.32,0,.56,0,.72,0s.4,0,.73,0l.72,0c.21,0,.31.09.31.25,0,.91,0,2.29-.1,4.13s-.1,3.22-.1,4.14v2c0,.91,0,1.6,0,2q0,2.88.24,2.88,4.77,0,7.21-.23l.59-.1a3.33,3.33,0,0,1,.6-.07Q122,63.5,122,63.74Z"/><path class="cls-4" d="M135.75,63.74a11.87,11.87,0,0,1-.19,2.58.43.43,0,0,1-.46.37c-.63,0-1.59,0-2.87-.11s-2.24-.11-2.87-.11l-2.71,0c-1.2,0-2.1,0-2.71,0a.29.29,0,0,1-.32-.32c0-.94,0-2.36.1-4.26s.09-3.32.09-4.27,0-2.5-.13-4.5-.14-3.5-.14-4.5c0-.19.11-.29.33-.29l.71,0c.32,0,.56,0,.72,0s.4,0,.73,0l.72,0c.21,0,.31.09.31.25,0,.91,0,2.29-.1,4.13s-.1,3.22-.1,4.14v2c0,.91,0,1.6,0,2q0,2.88.24,2.88c3.18,0,5.59-.08,7.21-.23l.59-.1a3.33,3.33,0,0,1,.6-.07Q135.75,63.5,135.75,63.74Z"/><path class="cls-4" d="M149.51,64a2.45,2.45,0,0,1-.1.6c-.08.32-.13.52-.14.59,0,.31-.09.76-.18,1.36a.31.31,0,0,1-.34.23,3.12,3.12,0,0,1-.49,0,38.64,38.64,0,0,0-4.93-.23c-.63,0-1.58,0-2.85,0s-2.22,0-2.85,0c-.29,0-.43-.12-.43-.37,0-1,.06-2.42.16-4.36s.17-3.39.17-4.36-.06-2.81-.16-5.5c0-.69-.06-1.72-.14-3.09l0-.18c0-.2.11-.3.34-.3.61,0,1.51,0,2.72,0s2.11.05,2.72.05,1.44,0,2.59-.05,2,0,2.6,0c.41,0,.63.12.66.37a19.79,19.79,0,0,1,.27,2.13c0,.2-.09.29-.28.29-.74,0-1.85,0-3.34-.12s-2.6-.12-3.36-.12a2.08,2.08,0,0,0-1.34.28,2.32,2.32,0,0,0-.27,1.41v1.93a7.07,7.07,0,0,0,0,.92c.08.27.31.4.68.4h.88q2.53,0,4.56-.09c.52,0,1.14-.06,1.86-.13.18,0,.27.06.27.23a11.17,11.17,0,0,1-.1,1.27q-.09.85-.09,1.29c0,.15-.13.23-.39.23l-1.15-.09c-.49-.06-1.57-.08-3.27-.08-1.42,0-2.32,0-2.7,0a.59.59,0,0,0-.6.55,8.1,8.1,0,0,1,0,1V62c0,.9.13,1.46.41,1.68a3,3,0,0,0,1.62.27H144c.61,0,2.3-.1,5.09-.31h.2C149.43,63.61,149.51,63.72,149.51,64Z"/><path class="cls-4" d="M165.52,66.45c0,.07-.07.1-.21.1s-.42,0-.75,0l-.75,0-.81,0c-.36,0-.63,0-.81,0a.49.49,0,0,1-.45-.32q-.42-.89-2.36-5.45a1.09,1.09,0,0,0-.95-.57h-1.17c-1.2,0-1.9,0-2.13,0s-.27.24-.27.66c0,.6,0,1.51.08,2.71s.09,2.1.09,2.7a.24.24,0,0,1-.26.27,7.59,7.59,0,0,1-.78-.06,7.69,7.69,0,0,0-.8-.06l-.67,0c-.31,0-.53,0-.68,0s-.32-.1-.32-.3c0-1,0-2.39.14-4.31s.13-3.36.13-4.32q0-4.09-.3-8.73v-.2c0-.18.17-.26.55-.26q1.11,0,3.33-.06c1.48,0,2.59-.06,3.32-.06a7.25,7.25,0,0,1,4.61,1.37A5.16,5.16,0,0,1,165.2,54a7.34,7.34,0,0,1-.51,3,6.05,6.05,0,0,1-2,2.21c-.17.11-.25.22-.25.32S162.94,60.8,164,63A34.21,34.21,0,0,1,165.52,66.45ZM162,54.71c0-1.57-.45-2.61-1.35-3.14A7.71,7.71,0,0,0,157,51c-1.39,0-2.1.11-2.13.34-.06.46-.09,1.71-.09,3.74v2.47a.34.34,0,0,0,.17.05l.76.07c.82,0,1.71.06,2.66.06Q162,57.72,162,54.71Z"/></g></g></svg>